<svg xmlns="http://www.w3.org/2000/svg" width="255" height="96" fill="none"><path fill="#D4D4FE" d="M71.133 33.53c-2.365 1.01-5.554 1.922-7.982 2.517-.76.187-.49-.243-1.024-.126-1.031.226-1.907.695-2.935.9-.34.065-.104-.552-.457-.472-1.938.445-3.65 1.193-5.555 1.78-7.472 2.302-14.636 5.045-21.61 8.427a65.084 65.084 0 0 0-5.108 2.76c-2.7 1.605-6.069 3.558-8.357 5.904-.266.273.2.448.17.523-.452 1.171-.776.258-1.4.685-2.134 1.466-4.102 3.506-5.643 5.588-.171.235-.322.48-.453.734-.4.843.813.448-.035 1.026-.058.047-.38-.374-.537-.155-.371.495-.65 1.692-.783 2.191-.27.96-.286 1.139-.387 2.114-.13 1.337-.341 3.023-.107 4.55.051.325.494-.145.62.363.07.273.131.795.174 1.297.011.238.033.466.021.602-.022.294-.41.319-.475.397-.537.765 1.076 1.335 1.192 1.384 2.252 1.94 5.015 3.875 8.328 5.364.172.076.347.152.522.226 2.307.983 4.905 1.641 7.243 2.255 2.987.783 5.557 1.497 8.59 1.846.321.037.018-.572.408-.53 4.14.446 8.278.745 12.471 1.196.42.046-.13.534.29.61 2.573.457 6.741 1.359 8.206-.865 1.753.027 3.883.01 5.48.35 1.032.217.08.82 1.313.51.277-.07-.119-.52.298-.588 1.76-.292 3.707-.29 5.439-.69.35-.081.215-.496.309-.581.784-.691 2.3.192 2.61.235 2.402.32 4.098-.086 6.274-.328.511-.056-.16-.552.33-.627 2.5-.379 5.135-.67 7.643-.756.555-.017.117.533.386.549 1.157.069 1.344-.884 2.458-.84.235.008.163.439.212.478.772.616 1.226-.475 1.39-.521 2.148-.614 3.661.237 5.777-.207.247-.053-.395-.497.317-.616.442-.073.867-.14 1.273-.201 4.364-.65 8.918-1.025 13.22-1.201.739-.032.269.429.321.471.842.658 1.194-.419 1.426-.488 1.828-.524 3.692.077 4.779-1.31 7.947-.729 15.607-2.815 23.565-3.392.101-.008.028.52.23.502 2.425-.23 1.818-.9 3.163-2.174.246-.234 1.083.16 1.573.41.181.094.312.169.346.185.455.216.219 1.036.362 1.066 1.177.218.45-2.15 1.879-2.486.046-.007-.037.48.093.497.402.05.736-.215 1.137-.15.915.153 1.51 1.246 2.617.249.139-.129-.442-1.427.839-1.685.52-.102 2.744-.712 3.397-.798.649-.083.339.47.388.477 1.845.114 1.275.526 2.36 1.142 1.092.608.282-1.349.561-1.672.277-.322 1.652-.207 2.002-.133.353.075.054.462.352.476 1.972.075.486-1.234.978-1.73 1.147-1.172 2.682-.016 3.994-.273.355-.07-.032-.32.262-.448 1.163-.506 2.04-.28 3.265-1.156.202-.143 1.003-1.4 1.935-.99.133.059-.029.525.51.433.805-.135 2.206-.53 2.982-.938.572-.302-.332-.664.493-.743.368-.035-.134.539.546.443.675-.093 2.284-.682 2.892-.914.607-.232.108-.569.147-.617.237-.284 1.329-.926 1.434-.964 2.322-.866 4.619-1.547 6.903-2.223 2.849-.844 5.589-1.705 8.316-2.99.383-.18-.073-.547-.016-.579 1.244-.75.722.944 1.825.976-.541-.9.093-.961.99-1.47.431-.247.025-.51.05-.566.424-.849 1.195-.326 1.38-.23.674.352.885-.51 1.346-.282.463.224.008 1.07.904.658.097-.453-.965-1.04-.355-1.489 2.302-1.678 7.31-3.298 9.32-4.296 2.042-.997 2.616-1.404 3.833-1.934 2.152-.951 1.069-1.164 2.151-2.184 1.072-1.025 1.386.854 1.763 1.073.38.216.374-.24.707-.197.332.042-.016.56.551.305.566-.252 1.621-1.72 1.587-2.175-.076-.958-1.171-1.302.321-1.901.086-.035.094.518.413.366 2.544-1.24 4.943-2.908 7.363-4.368.331-.198.376.422.573.311 2.075-1.198.853-1.358 1.242-2.92.591 1.184 1.653 1.36 3.034.197.828-.704.305-1 .569-1.762.079-.229.905-.445.826-.734-.249-.95-1.429-1.178.17-2.13.07-.04.21.48.43.313 1.424-1.086.95-1.89 2.202-3.317.99-1.125 3.185-2.707 4.349-3.971 1.087.974 1.883-.513 1.502-1.66.644-.757 1.275-1.668 1.921-2.405l.182-.202c.219-.248.456.158.517.149.988-.222.315-1.127.35-1.313.514-2.18.879-4.362-.722-6.25-.063-.071-1.013.252-.628-.612.023-.064.798.419.309-.581-.473-.986-1.316-3.106-2.758-3.985-.34-.218-1.54-.345-1.686-1.28l.576.313a.817.817 0 0 1-.038-.047c-.084-.108.093-.365-.021-.556-.373-.61-.855.33-1.252-.642-.395-.97-1.5-1.864-3.244-1.57-.055.007-.588.734-1.099.632-.809-.162-1.96-.52-2.816-.644-.413-.06-.224.478-.297.476-2.802-.132-4.711-.827-7.676-1.34-.544-.096-2.18.429-3.189-.205-1.112-.692.303-3.056-2.452-2.688-1.12.15-2.698 3.174-4.54 1.44-3.798.184-7.277-.77-11.081-.234-.165.024-.721.893-1.12.88-.595-.022-.905-.43-1.341-.456-1.767-.118-3.413.258-5.117.26-.654.004-.437-.428-1.212-.42-.796.012-1.266.59-2.335.388-.799-.153-1.693-1.23-2.776-1.255.078 1.122-.655 1.156-1.9 1.636-.223.092.084.44-.018.504-.457.274-.913.027-1.304.338-.088.074-.004.448-.063.529l-.015.02c-.6.698-2.016.183-2.257.089-.945-.352-1.2.223-1.874.155-.671-.07.19-.565-.566-.524-1.558.084-3.463.572-4.995.87-.605.12-.09.536-.174.565-1.238.387-2.621.098-3.135 1.23-1.359-2.428-.716.396-2.632.196-.153-.017-.543-1.213-.027-1.488.508-.274 1.413-.04 2.112-.459.172-.099.974-1.438 1.096-1.534.978-.753 1.494 1.039 1.573 1.128.876.95 1.87-.543 2.178-.699 1.413-.71 2.733-.746 3.913-1.32.772-.375.561-1.579 1.205-1.7 1.103-.207 1.958.075 2.747.135l.017-.004c.845.039 1.593-.059 2.563-.904.44-.368-.192-1.651 1.618-.783.119.053 1.415.9 2.092.25.088-.083.057-.47.169-.51.754-.261 1.322.017 2.152-.17.862-.19 1.874-.447 2.835-.34.586.064 1.354.773 1.626.946.79.497 1.62-.346 2.107.27.491.619-.459 1.564.82 1.962.045-1.008.152-2.044.229-3.058 2.813.038 5.567.422 8.379.485.349.007.013-.549.389-.555 1.586-.022 2.941.432 4.589.375 1.27-.046 2.701-.525 4.042-.567.723 1.212 2.713.983 4.131 1.228.496.084.433.388.777.523 1.299.506.778-.571 1.162-.693 1.656-.51 1.534 1.797 3.383 1.965.097.009 1.45-1.058 1.628-1.11 1.123-.354.118.447.764.627 1.175.33 1.967.742 3.423.61.429-.04 1.54-.635 2.239.09.092.096-.037.486.043.525 1.453.664 1.719-.581 2.688-.834.962-.254 2.149.903 2.361 1.213.57.8-.606.153-.661.21-.586.62.296.722 1.001.93l.748.19.445.457.08.09c-.789.975.021 1.694.544.633.054-.12-.468-.481-.544-.633 1.356-.395 2.422.466 2.435 2.282-.011.851-.853.737.479 2.152.59.665 1.11-.107 1.756.462 1.492 1.339 1.895 4.102 2.284 6.258.143.803.522-.048.629.522.259 1.562-.234 2.984-.571 4.56-.033.146.559-.044.39.451a10.463 10.463 0 0 1-1.574 2.888c-1.152 1.476-2.388 2.811-3.707 4.375-.899 1.079-2.357 3.112-3.399 4.11-1.796 1.759-4.511 3.34-5.971 4.856-.966 1-.407 1.162-.64 1.809-.459 1.26-2.784 1.643-3.097 1.656-.012.004.838-.834.184-.63-.616-.183-.174.62-.184.63-.204.022-2.138 1.391-2.455 1.74-.173.196.223.484.127.58a34.484 34.484 0 0 1-7.662 5.697c-.053.022-.263-.466-.383-.407-1.682.793-2.373 1.962-3.475 3.06-1.133 1.113-2.245 1.596-3.476 1.255-.963.67-2.572 1.09-3.536 1.324-.934.22-.584 1.185-.648 1.241-2.033 1.778-3.645 1.923-6.098 2.983-1.197.518-3.42 1.69-4.647 2.343-.958.517-1.666.56-2.54 1.094-.116.071.185.437.154.47-.817.931-.752-.3-1.04-.395-1.047-.347-1.674-.502-2.878.347-.271.192-.572 2.032-1.108 2.341-.696.398-.623-.244-1.351.184-.064.037.079.361-.397.526-.957.333-1.973.653-3.015.98-1.319.41-2.652.836-3.928 1.321-.307.116.281.499-.162.675-2.075.825-4.387 1.637-6.538 2.12-.529.117-.342-.366-.491-.437-.909-.427-1.53.877-1.682.95-3.63 1.786-6.847 1.888-10.638 3.535-.203.091-1.536 1.651-2.55.97-.068-.045-1.071-.751-1.531.07-.029.052.566.395-.243.579-.812.184-2.008.872-3.253.65-.398-.068-1.466-.77-2.305.247-.05.07-1.221 2.173-2.1 1.162-.143-.167-.358-1.416-1.439-.473-.208.181.295.347-.293.675-.891.504-2.248.486-3.305 1.313-.178.145-.879 1.191-1.726.715-.133-.074-.017-.534-.401-.495a11.86 11.86 0 0 0-.732.097c-1.58.257-3.125.777-4.734.861-.659.035-.476-.702-1.173-.742-.689-.041-2.07.066-2.695.51-.636.449.342 1.362-.684 1.658-4.464 1.284-9.098 1.483-13.672 2.133-.679.096-.052.39-1.051.557-3.675.63-10.003 1.875-13.29 1.45-2.633-.335.516-1.242-1.468-1.264-.952-.01-1.809 1.372-2.033 1.44-2.16.674-3.757.303-5.706.721-.404.087.06.545-.284.614-.643.13-1.315.168-1.974.207-.492.026-1.05.065-1.548.152-.483.087-.34.463-.81.498-1.124.088-2.155.07-3.273-.142-.105-.019.5-.597-.336-.497-1.363.166-3.06.041-4.584.63-.46.177-.332 1.064-1.412.586-.228-.1-.1-1.201-1.15-.123-.15.177-1.98 1.683-3.016.999-.278-.179-1.032-.97-1.582-.763-.074.03.29.47-.17.575-1.596.354-3.32.504-5.002.84-.444.09.276.512-.384.629-1.826.325-4.164.428-5.989.431-.673 0-.247-.45-.3-.491-.842-.66-1.224.36-1.482.44-1.583.473-2.867.103-4.345.322-.41.06-.088.51-.168.556-.83.463-.245-.419-.791-.478-1.53-.17-3.216-.047-4.747.073-.563.044.092.564-.414.598-3.003.206-6.147.201-9.1-.138-.556-.066-.2-.48-.314-.578-.781-.68-1.97.203-2.245.281-1.241.36-1.701-.03-2.794-.014-5.325.103-11.954-.902-16.989-2.252a54.038 54.038 0 0 1-9.656-3.517c-2.357-1.146-4.815-2.288-7.612-4.097-.388-.258-.314.47-.658.247-2.604-1.747-6.018-4.778-6.665-9.823a60.092 60.092 0 0 1-.403-5.539c-.008-.416-.546.183-.571-.496-.056-1.394.137-3.255.622-4.757.236-.727.468.358.7-.364.55-1.673 1.244-3.54 2.246-5.326.44-.762-.746.077-.109-.908.233-.347.48-.688.744-1.02 3.214-4.106 7.007-7.943 11.608-10.68.338-.2 1.263.472 1.785-.181-.134-.28-.35-.567-.524-.845 3.132-2.432 6.525-4.467 10.048-6.192 3.524-1.722 7.106-3.265 10.71-4.78.3-.125-.445-.44.133-.686 3.352-1.421 6.569-2.865 10.227-3.613.36-.074.544.95 1.497.433.165-.092 1.638-.776 1.952-1.125.042-.05-.399-.4.088-.59a68.364 68.364 0 0 1 8.757-2.717c.469-.11.152.537.487.463 2.39-.537 4.744-1.755 7.047-2.09 1.55-.228 1.303.797 2.378 1.326.152.075 1.047-.238 1.273.214.57 1.141.617 2.607 1.275 3.804.145.258 1.256-.502.783.432-.03.062-.855.623-.987.926-.096.211.36.59.118.904-.245.316-.739.04-1.174.461-.44.426-.01.892-1.03 1.33Zm139.259 23.703c-.993-.056-.319 1.612.338.81.03-.042-.287-.809-.338-.81Zm-.002-54.56c1.094.82 1.914-.315 1.131-.952-.784-.636-1.465.703-1.131.951Zm-11.697.603c1.35.58 1.492-1.97.064-1.41-.082.033-.142 1.377-.064 1.41ZM67.377 26.978c.02.018.679-.19.685-.217.156-.66-1.158-.245-.685.217Zm119.82-21.654c.48.235 1.522-.437.924-.728-.479-.234-1.517.435-.924.728Zm-19.286 66.27c-.021-.02-.501.107-.446.248.178.454.797.113.446-.247Zm.179-62.485c2.855-.328 4.939 1.456 1.769 1.717-.571.044 1.119-.852.37-.928-1.362-.138-2.048 1.298-3.496.789-.256-.094 1.192-1.563 1.362-1.582a.022.022 0 0 1-.005.004Zm40.902 46.411c-.025-.013-.656.27-.661.299-.088.677 1.187.104.661-.299Zm-69.344 22.205c-.051-.04-1.603.23-1.653.287-.627 1.08 2.543.53 1.653-.287Zm105.223-50.363c.038-.937.517-1.637 1.453-1.663-.492.563-.95 1.117-1.453 1.663Z"/></svg>